<svg xmlns="http://www.w3.org/2000/svg" xmlns:xlink="http://www.w3.org/1999/xlink" viewBox="0 0 646.24 444.4"><defs><style>.cls-1{fill:url(#linear-gradient);}.cls-2,.cls-6{fill:none;stroke-width:51px;}.cls-10,.cls-2{stroke-miterlimit:10;}.cls-2{stroke:url(#linear-gradient-2);}.cls-3{fill:url(#linear-gradient-3);}.cls-4{fill:url(#linear-gradient-4);}.cls-5{fill:url(#linear-gradient-5);}.cls-6{stroke-linejoin:round;stroke:url(#linear-gradient-6);}.cls-7{fill:url(#linear-gradient-7);}.cls-8{fill:url(#linear-gradient-8);}.cls-10,.cls-9{fill:#b78d6d;}.cls-10{stroke:#b78d6d;stroke-width:2px;}</style><linearGradient id="linear-gradient" x1="208.57" y1="119.74" x2="448.06" y2="119.74" gradientUnits="userSpaceOnUse"><stop offset="0.13" stop-color="#bc893c"/><stop offset="0.15" stop-color="#c08c3f"/><stop offset="0.17" stop-color="#ce9548"/><stop offset="0.2" stop-color="#e3a556"/><stop offset="0.22" stop-color="#ffb868"/><stop offset="0.24" stop-color="#f6b262"/><stop offset="0.27" stop-color="#dfa153"/><stop offset="0.31" stop-color="#bc893c"/><stop offset="0.57" stop-color="#bc893c"/><stop offset="0.59" stop-color="#c08c3f"/><stop offset="0.63" stop-color="#ce9548"/><stop offset="0.66" stop-color="#e3a556"/><stop offset="0.69" stop-color="#ffb868"/><stop offset="0.71" stop-color="#f6b262"/><stop offset="0.75" stop-color="#dfa153"/><stop offset="0.79" stop-color="#bc893c"/></linearGradient><linearGradient id="linear-gradient-2" x1="326.9" y1="229.45" x2="326.9" y2="229.45" gradientUnits="userSpaceOnUse"><stop offset="0.25" stop-color="#bc893c"/><stop offset="0.56" stop-color="#ffb868"/><stop offset="0.64" stop-color="#ebaa5b"/><stop offset="0.86" stop-color="#bc893c"/></linearGradient><linearGradient id="linear-gradient-3" x1="208.69" y1="119.74" x2="335.02" y2="119.74" gradientUnits="userSpaceOnUse"><stop offset="0.19" stop-color="#bc893c"/><stop offset="0.42" stop-color="#ffb868"/><stop offset="0.51" stop-color="#ebaa5b"/><stop offset="0.75" stop-color="#bc893c"/></linearGradient><linearGradient id="linear-gradient-4" x1="301.12" y1="242.91" x2="397.94" y2="233.18" gradientTransform="matrix(0.99, 0.1, -0.1, 0.99, -41.57, -106.97)" gradientUnits="userSpaceOnUse"><stop offset="0.07" stop-color="#bc893c"/><stop offset="0.33" stop-color="#ffb868"/><stop offset="0.51" stop-color="#c49143"/><stop offset="0.63" stop-color="#bc893c"/></linearGradient><linearGradient id="linear-gradient-5" x1="145.34" y1="-242.8" x2="175.19" y2="-162.44" gradientTransform="translate(266.02 443.81) rotate(-24.62)" gradientUnits="userSpaceOnUse"><stop offset="0.02" stop-color="#ffb868"/><stop offset="0.14" stop-color="#ebaa5b"/><stop offset="0.43" stop-color="#bc893c"/></linearGradient><linearGradient id="linear-gradient-6" x1="431.32" y1="268.67" x2="431.32" y2="268.67" gradientTransform="translate(-42.78 -165.67) rotate(7.09)" xlink:href="#linear-gradient-2"/><linearGradient id="linear-gradient-7" x1="520.69" y1="393.03" x2="603.8" y2="373.22" gradientTransform="translate(-65.14 -318.18) rotate(13.4)" gradientUnits="userSpaceOnUse"><stop offset="0.19" stop-color="#bc893c"/><stop offset="0.32" stop-color="#ffb868"/><stop offset="0.39" stop-color="#ebaa5b"/><stop offset="0.57" stop-color="#bc893c"/></linearGradient><linearGradient id="linear-gradient-8" x1="304.8" y1="82.69" x2="434.6" y2="82.69" xlink:href="#linear-gradient-2"/></defs><title>logo_5</title><g id="Layer_2" data-name="Layer 2"><g id="Layer_1-2" data-name="Layer 1"><path class="cls-1" d="M328.32,239.49a119.75,119.75,0,0,1-35.6-5.39h0a119.8,119.8,0,0,1-11-224.69,119.77,119.77,0,0,1,93.23,220.66A119,119,0,0,1,328.32,239.49Zm0-217.72A98,98,0,0,0,249.8,178.36a98.81,98.81,0,0,0,49.38,35h0A98,98,0,1,0,328.32,21.77Z"/><path class="cls-2" d="M326.9,229.45"/><path class="cls-3" d="M247.27,180.42A63.17,63.17,0,1,1,335,122.22H313.36a41.51,41.51,0,1,0-57.66,38.25Z"/><path class="cls-4" d="M300.46,231.51a67.31,67.31,0,0,1-6.73-.34,66.65,66.65,0,1,1,37.32-125.51l-10.18,19.64a44.53,44.53,0,1,0-24.93,83.85,44.84,44.84,0,0,0,9.35,0l2.41,22A66.62,66.62,0,0,1,300.46,231.51Z"/><path class="cls-5" d="M328.35,238.07a44.23,44.23,0,1,1,40.15-62.66l-16.82,7.71A25.73,25.73,0,1,0,339,217.22L346.71,234A44,44,0,0,1,328.35,238.07Z"/><path class="cls-6" d="M352.09,154.16"/><path class="cls-7" d="M390.8,204.72a46.19,46.19,0,0,1-40.55-24.11l16.26-8.84A27.64,27.64,0,0,0,417.69,165l18,4.29A46.23,46.23,0,0,1,390.8,204.72Z"/><path class="cls-8" d="M369.7,147.59a64.9,64.9,0,1,1,64.9-64.9A65,65,0,0,1,369.7,147.59ZM369.7,40a42.65,42.65,0,1,0,42.65,42.65A42.7,42.7,0,0,0,369.7,40Z"/><path class="cls-9" d="M15.19,315.79H0v-6.16H37.38v6.16H22.19v42.7h-7Z"/><path class="cls-9" d="M57.68,309.63h7v20.44H88.06V309.63h7v48.86h-7V336.23H64.68v22.26h-7Z"/><path class="cls-9" d="M121.17,309.63h27.37v6.16H128.17v14.28h18.55v6.16H128.17v16.1h20.37v6.16H121.17Z"/><path class="cls-9" d="M242.2,318.31a20.14,20.14,0,0,0-5.64-2.52,30.07,30.07,0,0,0-7.8-.84,19.88,19.88,0,0,0-7.67,1.43,17.34,17.34,0,0,0-6,4,17.84,17.84,0,0,0-3.81,6.09,21.1,21.1,0,0,0-1.33,7.56,20.48,20.48,0,0,0,1.44,7.84,18.11,18.11,0,0,0,4,6,17.58,17.58,0,0,0,5.88,3.89,18.8,18.8,0,0,0,7.14,1.36q1.82,0,3-.07t2.07-.21q.87-.14,1.5-.28l1.26-.28V337.49H226v-5.74h17.29v25.41a47.22,47.22,0,0,1-5.6,1.44,47.83,47.83,0,0,1-9.31.73,29.89,29.89,0,0,1-10.57-1.79,22.7,22.7,0,0,1-8.12-5.11,23,23,0,0,1-5.21-8.05,28.6,28.6,0,0,1-1.85-10.53,26.5,26.5,0,0,1,1.92-10.29,22.92,22.92,0,0,1,5.39-7.91,24.13,24.13,0,0,1,8.19-5.08,29,29,0,0,1,10.33-1.79q2.66,0,4.69.17a29.07,29.07,0,0,1,3.64.53q1.61.35,3,.8l3,.95Z"/><path class="cls-9" d="M268.94,309.63h27.37v6.16H275.94v14.28h18.55v6.16H275.94v16.1h20.37v6.16H268.94Z"/><path class="cls-9" d="M330.19,315.79H315v-6.16h37.38v6.16H337.19v42.7h-7Z"/><path class="cls-9" d="M420.21,309.63h7.35l20.65,48.86h-7.63l-5-12.32H411.67l-5,12.32h-7.35Zm3.43,6.58-9.73,24.22h19.46Z"/><path class="cls-9" d="M460.88,309.63h7.7l11.69,41.86h.14l10.43-41.86h9.94l10.57,41.86h.14l11.69-41.86h7.42l-15,48.86h-9l-10.64-42.7h-.14L485,358.49h-9.38Z"/><path class="cls-9" d="M564.13,309.63h7.35l20.65,48.86H584.5l-5-12.32H555.59l-5,12.32h-7.35Zm3.43,6.58-9.73,24.22h19.46Z"/><path class="cls-9" d="M620.2,338l-19.11-28.42h8.19l14.56,21.91L638,309.63h8.19L627.2,338v20.44h-7Z"/><path class="cls-10" d="M238,392.9a14.84,14.84,0,0,1,4.14,7.52A14.36,14.36,0,0,1,240,411.1a15.14,15.14,0,0,1-7.38,5.47,9.79,9.79,0,0,1,4,6.23,14.64,14.64,0,0,1-2.49,11,18.45,18.45,0,0,1-8.85,6.94,32.79,32.79,0,0,1-10.63,2.31c-5.52.22-10.81-.93-16.5-1.91a29.11,29.11,0,0,1-11.57,2.22c-1.56,0-5.2-.13-5.2-1.69s3.74-2.09,5.87-2.09a64.38,64.38,0,0,1,9.87,1.11c7.34-3.56,12.54-10.5,17-17,4.58-6.94,8.67-14.23,13.92-21.17a58.2,58.2,0,0,1,8.94-10,17.7,17.7,0,0,0-10.41-5.12c-6.14-1-13.7.67-19.26,3.65A34.22,34.22,0,0,0,193,405.31a26,26,0,0,0-3,10.14,11.21,11.21,0,0,0,1.29,6c1.78,3.16,6,4.54,9.47,3.69a16.35,16.35,0,0,0,10.23-7.52c.09-.18.31-.13.18.13a17.57,17.57,0,0,1-10.32,7.78c-3.69.93-8.14.22-10.68-3.29a11.7,11.7,0,0,1-2-6.85,21.58,21.58,0,0,1,3.29-11.08,37,37,0,0,1,15.79-13.74c5.83-2.8,13.21-4.4,19.53-3.42a19.46,19.46,0,0,1,10.68,5.07,30.7,30.7,0,0,1,8.1-4.76c3.47-1.33,7.65-.89,9.07,1.07.09.18,0,.27-.18.13-1.29-1.87-5.34-2.27-8.63-1A23.09,23.09,0,0,0,238,392.9Zm-41.32,48a63,63,0,0,0-9.43-1.07c-1.38,0-5.56.36-5.56,1.82,0,1.16,3.34,1.47,4.8,1.42A26.3,26.3,0,0,0,196.69,440.94Zm32.69-37.36c-4.36,6.72-8.36,13.79-13,20.73-5.69,8.54-9.43,12.1-17.84,16.68,5.65.85,10.68,2,16.1,1.74a22.92,22.92,0,0,0,10.19-2.94,20.72,20.72,0,0,0,7.38-7.16,18.77,18.77,0,0,0,2.71-9.61,8.13,8.13,0,0,0-2.94-6.27,11.88,11.88,0,0,1-3.56.53c-1.11,0-2-.36-2-.93,0-.4.62-.8,2.22-.89a6.27,6.27,0,0,1,3.2.62,18.4,18.4,0,0,0,6.32-6.23,14,14,0,0,0,2.54-9.25,13.36,13.36,0,0,0-3.07-7.38A59.42,59.42,0,0,0,229.39,403.58Zm2,12.72a5.14,5.14,0,0,0-2.67-.62c-1.33.09-1.91.4-1.91.67s.58.67,1.69.67A7.3,7.3,0,0,0,231.35,416.3Z"/><path class="cls-10" d="M261.33,437.34a77,77,0,0,0,6.09-7,.11.11,0,1,1,.18.13,72.19,72.19,0,0,1-6.09,7.07,10.8,10.8,0,0,1-3.34,2.36,1.75,1.75,0,0,1-2.45-1.74c0-2,1.2-4,2.18-5.6-1.65,2.31-4.18,5.34-6.63,6.85-1.25.76-3.29,1.11-3.69-.84a9.9,9.9,0,0,1,.85-5,17.23,17.23,0,0,1,7.38-8c1.2-.58,4-1.82,5-.22.67,1,.13,2.31-.36,3.29.85-1.25,1.69-2.54,2.58-3.74a4.35,4.35,0,0,0,3.34-.89c-.67.85-1.87,2.49-2.8,4-1.69,2.62-3.69,5.29-5.29,8.14-.31.53-2.27,4.18-.18,3.56A10.08,10.08,0,0,0,261.33,437.34Zm-10.1,1.82c2.27-1.38,5.83-5.38,8.5-9.83,1.07-1.73,1.38-3.11.89-3.87-1.07-1.51-3.51.09-4.54,1a25.19,25.19,0,0,0-5.29,7.07c-.85,1.6-2.4,5-1.87,5.83C249.27,440,250.39,439.7,251.23,439.16Z"/><path class="cls-10" d="M284.55,425.69a17,17,0,0,1-3.47-.49,30.09,30.09,0,0,1-3.47,5.25c-.13.13-.31,0-.18-.13a31.11,31.11,0,0,0,3.47-5.2,2.12,2.12,0,0,1-1.2-2,1.7,1.7,0,0,1,1.2-1.82c.49,0,1,.36,1,1.42a4.37,4.37,0,0,1-.62,2c.36.53,2.58.53,3.51.67,1.2.18,2.22.8,2,2.36a6.36,6.36,0,0,1-1.25,2.36c-.89,1.33-2,2.71-2.8,3.92-.67,1-2,2.76-2.49,3.78s-.31,1.78.13,1.87,1.47-.4,2.18-.93c2.22-1.65,5.12-5,7.83-8.5.13-.18.31,0,.18.13-2.71,3.51-5.6,6.89-7.87,8.54a4.42,4.42,0,0,1-2.36,1c-1.73,0-2.13-1.73-1.82-2.85a16.3,16.3,0,0,1,2.36-4.31c1.25-1.87,2.58-3.43,3.91-5.38C285.57,426.26,285.17,425.78,284.55,425.69Z"/><path class="cls-10" d="M297.63,437.56a7.88,7.88,0,0,1,.93-4.36,18.12,18.12,0,0,1,3-4.27,14.54,14.54,0,0,1,6.89-4.4,2.63,2.63,0,0,1,2.36.4,1.65,1.65,0,0,1,.36,1.33,5,5,0,0,1-1.38,2.4c-.58.58-1.42,1-1.78.71s-.27-1.07.31-1.69,1.6-1,1.87-.27a1.84,1.84,0,0,0,.76-1.16,1.37,1.37,0,0,0-.27-1.2c-.4-.45-1.42-.36-2.09-.09-2,.89-4,3-5.6,5.11-1.29,1.69-3.6,5.25-3.91,7.52-.18,1.33.09,2.09,1.56,2.09a10.33,10.33,0,0,0,4.45-2,38.8,38.8,0,0,0,7.7-7.34c.13-.13.31,0,.18.13a37.25,37.25,0,0,1-7.74,7.38c-2,1.47-3.74,2.18-5,2.18A2.61,2.61,0,0,1,297.63,437.56Z"/><path class="cls-10" d="M322.76,439.7c1.25.09,3-.62,4.94-2a40.17,40.17,0,0,0,7.56-7.38c.09-.09.27,0,.18.13a38.45,38.45,0,0,1-7.61,7.43c-1.25.85-3.29,2.14-5,2.14-2.58,0-2.94-2.27-2.8-4a10.37,10.37,0,0,1,2-4.76,16.35,16.35,0,0,1,3.16-3.42c1.82-1.51,4.36-3.16,6.41-3.38,1.6-.18,2.27,1.11,1.42,2.54-1.2,2-6.18,4.94-9.16,5.34a13.76,13.76,0,0,0-2,4.14C321.56,437.47,321.2,439.61,322.76,439.7Zm8.94-14.9c-2.22.36-6,5-7.61,7.3,2.67-.31,7.65-3.2,8.81-5.2C333.57,425.73,333.21,424.57,331.7,424.8Z"/><path class="cls-10" d="M348.74,428.22c-1.56,2.85-3.38,6.09-4,8.76-.22.89-.58,2.54.76,2.76,2.13.36,6.23-2.89,11.34-9.43.09-.09.22,0,.18.13-5.25,6.67-9.12,9.7-11.39,9.56-4.58-.27-1.87-6.58-.89-8.63a86.13,86.13,0,0,1,7-11.92c4-6.18,8.23-12.72,13.17-18.28a19.55,19.55,0,0,1,4.54-4c1.33-.8,3-1,3.47.4.27.76.45,3.07-3.34,8.23a70.63,70.63,0,0,1-5.52,6.67C359.1,417.9,353.36,422.88,348.74,428.22Zm23.93-30.51c-.45-1.29-2.18-.62-2.85-.13a21.25,21.25,0,0,0-3.6,4c-6,8.14-11.43,17.35-16.86,25.67,4.36-5,9.92-9.83,14.5-14.86,1.91-2.09,3.83-4.36,5.52-6.63C372,402.2,373.16,399.18,372.67,397.71Z"/><path class="cls-10" d="M366.57,440.05a2.43,2.43,0,0,1-2.4-2.71A10.75,10.75,0,0,1,366,431.6a20.25,20.25,0,0,1,5.34-5.83c1.78-1.25,4.76-2.36,6-1.07a2.36,2.36,0,0,1,.53,1.65c0,.22-.18.18-.18,0a1.71,1.71,0,0,0-.53-1.47c-1.51-1-4.31,1.33-5.43,2.58A33.23,33.23,0,0,0,368,432.4a25.42,25.42,0,0,0-2.4,5.07c-.27.93-.36,2.4.89,2.36a6.49,6.49,0,0,0,3.16-1.25,19.46,19.46,0,0,0,3.6-3.11,28.16,28.16,0,0,0,2-2.54,3.62,3.62,0,0,1,.27-3.69c.8-1.33,1.73-1.87,2.09-1.65s0,1.6-.36,2.4a17,17,0,0,1-1.56,2.62,1,1,0,0,0,1,.8c1.42.09,3.29-2,4.23-3.11.09-.09.27,0,.18.13-2.22,2.71-3.69,3.34-4.63,3.2a1.61,1.61,0,0,1-1-.53,24.87,24.87,0,0,1-2.14,2.62,18.8,18.8,0,0,1-3.69,3.11A6.52,6.52,0,0,1,366.57,440.05Z"/><path class="cls-10" d="M396.91,425.11c-.31-.67-2.31.93-5.74,5.34-.09.13-.31,0-.18-.13,3.42-4.32,4.85-5.52,6-5.69,1.56-.27,2,1.25,1.25,2.71a43.57,43.57,0,0,1-2.58,4.23c3.25-3.87,6.89-7,8.76-6.94a1.93,1.93,0,0,1,2,2.31c-.31,2.36-2.67,5-4.18,7.16-.67,1-2,2.76-2.49,3.78s-.31,1.78.13,1.87,1.47-.4,2.18-.93c2.22-1.65,5-5,7.7-8.5.13-.18.31,0,.18.13-2.71,3.51-5.47,6.89-7.74,8.54a4.42,4.42,0,0,1-2.36,1c-1.56,0-1.82-1.91-1.51-3a14.61,14.61,0,0,1,2.13-4.14c1.42-2,2.94-4.09,4.18-6.27.36-.62.58-1.69-.4-1.69-2,0-6.63,4.09-10.59,9.56l-3.42,5.25a4.77,4.77,0,0,0-3.42.89c.67-.8,1.82-2.4,2.76-3.83C394.29,429.65,397.22,425.82,396.91,425.11Z"/><path class="cls-10" d="M430.76,437.34a77.14,77.14,0,0,0,6.09-7,.11.11,0,1,1,.18.13,72.2,72.2,0,0,1-6.09,7.07,10.79,10.79,0,0,1-3.34,2.36,1.75,1.75,0,0,1-2.45-1.74c0-2,1.2-4,2.18-5.6-1.65,2.31-4.18,5.34-6.63,6.85-1.25.76-3.29,1.11-3.69-.84a9.9,9.9,0,0,1,.85-5,17.23,17.23,0,0,1,7.38-8c1.2-.58,4-1.82,5-.22.67,1,.13,2.31-.36,3.29.85-1.25,1.69-2.54,2.58-3.74a4.35,4.35,0,0,0,3.34-.89c-.67.85-1.87,2.49-2.8,4-1.69,2.62-3.69,5.29-5.29,8.14-.31.53-2.27,4.18-.18,3.56A10.08,10.08,0,0,0,430.76,437.34Zm-10.1,1.82c2.27-1.38,5.83-5.38,8.5-9.83,1.07-1.73,1.38-3.11.89-3.87-1.07-1.51-3.51.09-4.54,1a25.21,25.21,0,0,0-5.29,7.07c-.84,1.6-2.4,5-1.87,5.83C418.71,440,419.82,439.7,420.66,439.16Z"/></g></g></svg>