<svg id="Layer_1" data-name="Layer 1" xmlns="http://www.w3.org/2000/svg" xmlns:xlink="http://www.w3.org/1999/xlink" viewBox="0 0 517.06 559.11"><defs><style>.cls-1{fill:url(#linear-gradient);}.cls-2,.cls-6{fill:none;stroke-width:51px;}.cls-2{stroke-miterlimit:10;stroke:url(#linear-gradient-2);}.cls-3{fill:url(#linear-gradient-3);}.cls-4{fill:url(#linear-gradient-4);}.cls-5{fill:url(#linear-gradient-5);}.cls-6{stroke-linejoin:round;stroke:url(#linear-gradient-6);}.cls-7{fill:url(#linear-gradient-7);}.cls-8{fill:url(#linear-gradient-8);}.cls-9{font-size:53px;letter-spacing:11px;}.cls-10,.cls-9{fill:#c69c6d;font-family:Helvetica;}.cls-10{font-size:37px;letter-spacing:7px;}</style><linearGradient id="linear-gradient" x1="1099.22" y1="2031.43" x2="1463.08" y2="2031.43" gradientUnits="userSpaceOnUse"><stop offset="0.13" stop-color="#cb983c"/><stop offset="0.16" stop-color="#cf9c40"/><stop offset="0.18" stop-color="#dda84b"/><stop offset="0.21" stop-color="#f2bb5d"/><stop offset="0.22" stop-color="#ffc768"/><stop offset="0.24" stop-color="#f6bf61"/><stop offset="0.29" stop-color="#dfaa4d"/><stop offset="0.31" stop-color="#cb983c"/><stop offset="0.57" stop-color="#cb983c"/><stop offset="0.6" stop-color="#cf9c40"/><stop offset="0.64" stop-color="#dda84b"/><stop offset="0.67" stop-color="#f2bb5d"/><stop offset="0.69" stop-color="#ffc768"/><stop offset="0.72" stop-color="#f6bf61"/><stop offset="0.76" stop-color="#dfaa4d"/><stop offset="0.79" stop-color="#cb983c"/></linearGradient><linearGradient id="linear-gradient-2" x1="1279" y1="2198.11" x2="1279" y2="2198.11" gradientUnits="userSpaceOnUse"><stop offset="0.25" stop-color="#cb983c"/><stop offset="0.56" stop-color="#ffc768"/><stop offset="0.59" stop-color="#fac264"/><stop offset="0.86" stop-color="#cb983c"/></linearGradient><linearGradient id="linear-gradient-3" x1="1099.4" y1="2031.42" x2="1291.33" y2="2031.42" gradientUnits="userSpaceOnUse"><stop offset="0.19" stop-color="#cb983c"/><stop offset="0.42" stop-color="#ffc768"/><stop offset="0.45" stop-color="#fac264"/><stop offset="0.75" stop-color="#cb983c"/></linearGradient><linearGradient id="linear-gradient-4" x1="1250.19" y1="2034.09" x2="1397.29" y2="2019.3" gradientTransform="matrix(0.99, 0.1, -0.1, 0.99, 97.03, -48.98)" gradientUnits="userSpaceOnUse"><stop offset="0.07" stop-color="#cb983c"/><stop offset="0.33" stop-color="#ffc768"/><stop offset="0.51" stop-color="#d3a043"/><stop offset="0.63" stop-color="#cb983c"/></linearGradient><linearGradient id="linear-gradient-5" x1="732.6" y1="2245.76" x2="777.96" y2="2367.85" gradientTransform="translate(-368.08 360.1) rotate(-24.62)" gradientUnits="userSpaceOnUse"><stop offset="0.02" stop-color="#ffc768"/><stop offset="0.06" stop-color="#fac264"/><stop offset="0.43" stop-color="#cb983c"/></linearGradient><linearGradient id="linear-gradient-6" x1="1449.22" y1="2012.4" x2="1449.22" y2="2012.4" gradientTransform="translate(127.42 -92.11) rotate(7.09)" xlink:href="#linear-gradient-2"/><linearGradient id="linear-gradient-7" x1="1568.7" y1="1982.47" x2="1694.97" y2="1952.38" gradientTransform="translate(248.09 -161.79) rotate(13.4)" gradientUnits="userSpaceOnUse"><stop offset="0.19" stop-color="#cb983c"/><stop offset="0.32" stop-color="#ffc768"/><stop offset="0.34" stop-color="#fac264"/><stop offset="0.57" stop-color="#cb983c"/></linearGradient><linearGradient id="linear-gradient-8" x1="1245.42" y1="1975.13" x2="1442.63" y2="1975.13" xlink:href="#linear-gradient-2"/></defs><title>tga-logo</title><path class="cls-1" d="M1281.15,2213.36a181.93,181.93,0,0,1-54.09-8.18h0A182.66,182.66,0,1,1,1281.15,2213.36Zm0-330.78a148.87,148.87,0,0,0-119.29,237.9,150.13,150.13,0,0,0,75,53.11h0A148.87,148.87,0,1,0,1281.15,1882.58Z" transform="translate(-1043.02 -1849.5)"/><path class="cls-2" d="M1279,2198.11" transform="translate(-1043.02 -1849.5)"/><path class="cls-3" d="M1158,2123.61a96,96,0,1,1,133.33-88.42h-32.9a63.06,63.06,0,1,0-87.61,58.11Z" transform="translate(-1043.02 -1849.5)"/><path class="cls-4" d="M1238.82,2201.23a102.26,102.26,0,0,1-10.23-.51A101.26,101.26,0,1,1,1285.3,2010l-15.47,29.85A67.65,67.65,0,1,0,1232,2167.27a68.13,68.13,0,0,0,14.21-.05l3.66,33.42A101.21,101.21,0,0,1,1238.82,2201.23Z" transform="translate(-1043.02 -1849.5)"/><path class="cls-5" d="M1281.2,2211.2a67.21,67.21,0,1,1,61-95.21l-25.56,11.71a39.09,39.09,0,1,0-19.25,51.82l11.71,25.56A66.82,66.82,0,0,1,1281.2,2211.2Z" transform="translate(-1043.02 -1849.5)"/><path class="cls-6" d="M1317.27,2083.72" transform="translate(-1043.02 -1849.5)"/><path class="cls-7" d="M1376.08,2160.53a70.18,70.18,0,0,1-61.6-36.64l24.7-13.44a42,42,0,0,0,77.76-10.32l27.35,6.52A70.24,70.24,0,0,1,1376.08,2160.53Z" transform="translate(-1043.02 -1849.5)"/><path class="cls-8" d="M1344,2073.74a98.61,98.61,0,1,1,98.61-98.61A98.72,98.72,0,0,1,1344,2073.74Zm0-163.4a64.8,64.8,0,1,0,64.8,64.8A64.87,64.87,0,0,0,1344,1910.33Z" transform="translate(-1043.02 -1849.5)"/><text class="cls-9" transform="translate(0 489.97)">THE GET AWAY</text><text class="cls-10" transform="translate(135 545.97)">Barcelona</text></svg>